#!OML:ASF X:\2005_08_12_Meinard\c3d\meinard.ASF
:FULLY-SPECIFIED
:DEGREES
984
root -0.117042 16.7089 -3.54071 -17.3481 -61.664 -4.57292
lowerback 35.6284 -1.30941 -3.13124
upperback 3.35661 -4.08724 -4.81412
thorax -14.5361 -1.90333 -1.75098
lowerneck 2.53526 -18.5353 4.9336
upperneck -16.6104 -23.8749 10.5711
head -4.73767 -12.7473 3.55118
rclavicle 5.60076e-014 4.29375e-014
rhumerus 12.0539 -7.16967 7.05594
rradius 27.2877
rwrist -69.653
rhand -43.6915 -36.3771
rfingers 7.12502
rthumb -16.5242 -65.6935
lclavicle 5.60076e-014 4.29375e-014
lhumerus 150.238 150.276 226.625
lradius 10.8656
lwrist -43.468
lhand -14.6461 -8.86569
lfingers 7.12502
lthumb 11.5061 20.7985
rfemur 5.04137 -9.94031 11.8718
rtibia 34.123
rfoot -14.6303 9.53826
rtoes -14.7545
lfemur 16.2809 -10.7604 -4.09364
ltibia 30.5638
lfoot -10.2452 1.77975
ltoes -35.6245
985
root -0.186124 16.7277 -3.58558 -17.3897 -61.8793 -4.42802
lowerback 35.4358 -1.44192 -3.09171
upperback 3.36827 -4.22513 -4.79817
thorax -14.451 -1.96801 -1.69869
lowerneck 2.97585 -18.3846 4.71197
upperneck -16.8636 -23.6316 10.6672
head -4.85496 -12.6354 3.65545
rclavicle -1.05853e-014 -7.15625e-014
rhumerus 14.4607 -12.9363 3.45704
rradius 26.7452
rwrist -57.0816
rhand -40.9361 -36.4244
rfingers 7.12502
rthumb -13.8701 -65.9419
lclavicle -1.05853e-014 -7.15625e-014
lhumerus 148.631 146.088 223.559
lradius 10.2136
lwrist -48.3697
lhand -14.3584 -9.20387
lfingers 7.12502
lthumb 11.7835 20.4446
rfemur 5.15373 -9.91613 12.111
rtibia 33.9612
rfoot -14.6682 9.6329
rtoes -14.3646
lfemur 16.338 -10.5783 -4.10171
ltibia 30.5987
lfoot -9.45902 2.834
ltoes -36.1571
986
root -0.250198 16.7483 -3.62879 -17.3753 -62.2198 -4.30443
lowerback 35.2338 -1.54379 -3.03061
upperback 3.35031 -4.3147 -4.77229
thorax -14.3961 -2.01142 -1.66858
lowerneck 3.46205 -18.2349 4.46327
upperneck -17.1199 -23.3864 10.791
head -4.97482 -12.5234 3.77458
rclavicle 6.00827e-014 3.65764e-014
rhumerus 17.4605 -18.3842 -0.564129
rradius 26.0999
rwrist -44.9341
rhand -38.27 -36.0509
rfingers 7.12502
rthumb -11.2997 -65.7265
lclavicle 6.00827e-014 3.65764e-014
lhumerus 148.433 145.692 223.19
lradius 9.58331
lwrist -49.0358
lhand -14.2755 -8.74303
lfingers 7.12502
lthumb 11.8635 20.9009
rfemur 5.18319 -9.81031 12.4028
rtibia 33.7773
rfoot -14.6747 9.71335
rtoes -14.2157
lfemur 16.4108 -10.3208 -4.09704
ltibia 30.6076
lfoot -8.65348 3.97455
ltoes -36.6025
987
root -0.308124 16.7691 -3.67042 -17.3415 -62.6793 -4.1967
lowerback 35.0341 -1.62139 -2.94266
upperback 3.34499 -4.36278 -4.73992
thorax -14.3274 -2.03874 -1.66403
lowerneck 3.87645 -18.078 4.22255
upperneck -17.3423 -23.1434 10.8788
head -5.07903 -12.4089 3.87342
rclavicle 2.24627e-014 9.54166e-015
rhumerus 21.0404 -23.3907 -5.0682
rradius 25.4944
rwrist -33.6188
rhand -35.9188 -35.0884
rfingers 7.12502
rthumb -9.03144 -64.8751
lclavicle 2.24627e-014 9.54166e-015
lhumerus 148.318 145.204 222.903
lradius 8.95533
lwrist -49.7682
lhand -14.1994 -8.2534
lfingers 7.12502
lthumb 11.9369 21.3863
rfemur 5.17488 -9.5927 12.7356
rtibia 33.5616
rfoot -14.6149 9.82379
rtoes -13.8799
lfemur 16.5291 -9.98747 -4.08504
ltibia 30.5986
lfoot -7.83374 5.1854
ltoes -36.8619
988
root -0.361191 16.7924 -3.70974 -17.405 -63.2217 -3.96328
lowerback 34.8658 -1.65672 -2.8674
upperback 3.30946 -4.36886 -4.72612
thorax -14.3064 -2.04605 -1.69009
lowerneck 4.27635 -17.9344 3.99744
upperneck -17.5564 -22.9224 10.9473
head -5.18282 -12.3036 3.96442
rclavicle -7.688e-014 1.74931e-014
rhumerus 24.9191 -27.4768 -9.72591
rradius 25.0597
rwrist -23.7763
rhand -33.9476 -33.5118
rfingers 7.12502
rthumb -7.12898 -63.3718
lclavicle -7.688e-014 1.74931e-014
lhumerus 148.145 144.769 222.605
lradius 8.44259
lwrist -50.6066
lhand -14.1195 -7.84179
lfingers 7.12502
lthumb 12.0139 21.7934
rfemur 5.1297 -9.27783 13.029
rtibia 33.3094
rfoot -14.5041 9.91874
rtoes -13.5655
lfemur 16.6662 -9.56688 -4.14686
ltibia 30.5731
lfoot -7.02674 6.38585
ltoes -37.1741
989
root -0.409466 16.8171 -3.74711 -17.3681 -63.8448 -3.81531
lowerback 34.6835 -1.68737 -2.70774
upperback 3.2796 -4.33608 -4.71206
thorax -14.2783 -2.04119 -1.77801
lowerneck 4.63301 -17.7909 3.71494
upperneck -17.7423 -22.7051 11.0805
head -5.25647 -12.2013 4.07121
rclavicle -7.30534e-015 3.81667e-014
rhumerus 29.0253 -30.5008 -14.3048
rradius 24.5985
rwrist -15.4755
rhand -32.3025 -31.2999
rfingers 7.12502
rthumb -5.54081 -61.2075
lclavicle -7.30534e-015 3.81667e-014
lhumerus 148.038 144.307 222.368
lradius 7.9447
lwrist -51.6219
lhand -14.123 -7.46452
lfingers 7.12502
lthumb 12.0105 22.1709
rfemur 5.04205 -8.91031 13.3833
rtibia 33.0216
rfoot -14.3347 10.0426
rtoes -13.1995
lfemur 16.7845 -9.06992 -4.14907
ltibia 30.5437
lfoot -6.33428 7.43669
ltoes -37.5892
990
root -0.454987 16.8432 -3.78279 -17.3794 -64.5042 -3.61605
lowerback 34.5156 -1.70259 -2.53714
upperback 3.24402 -4.28268 -4.70613
thorax -14.2633 -2.02779 -1.8891
lowerneck 4.91749 -17.6534 3.52245
upperneck -17.8963 -22.5044 11.1324
head -5.32945 -12.104 4.13868
rclavicle -2.19657e-014 2.70347e-014
rhumerus 33.1593 -32.4577 -18.5629
rradius 24.0761
rwrist -8.61046
rhand -30.9224 -28.5213
rfingers 7.12502
rthumb -4.20825 -58.4595
lclavicle -2.19657e-014 2.70347e-014
lhumerus 147.89 143.859 222.15
lradius 7.57325
lwrist -52.6944
lhand -14.1184 -7.12324
lfingers 7.12502
lthumb 12.0149 22.5119
rfemur 4.96674 -8.46998 13.724
rtibia 32.703
rfoot -14.1271 10.1285
rtoes -12.8056
lfemur 16.9157 -8.55882 -4.20282
ltibia 30.5075
lfoot -5.71843 8.39676
ltoes -37.9939
991
root -0.496852 16.8683 -3.81683 -17.4293 -65.1843 -3.37486
lowerback 34.3778 -1.70667 -2.40087
upperback 3.20023 -4.22774 -4.68362
thorax -14.265 -2.01085 -1.96375
lowerneck 5.11738 -17.5208 3.47009
upperneck -18.0161 -22.3194 11.0587
head -5.40988 -12.0102 4.14818
rclavicle 1.13307e-014 -6.36111e-015
rhumerus 37.2494 -33.4147 -22.3154
rradius 23.3635
rwrist -2.86144
rhand -29.682 -25.3511
rfingers 7.12502
rthumb -3.01035 -55.3096
lclavicle 1.13307e-014 -6.36111e-015
lhumerus 147.62 143.404 221.877
lradius 7.30319
lwrist -53.8219
lhand -14.1177 -6.86071
lfingers 7.12502
lthumb 12.0156 22.7744
rfemur 4.89401 -8.05032 14.0254
rtibia 32.3546
rfoot -13.9184 10.2731
rtoes -12.5637
lfemur 17.0312 -8.02559 -4.2848
ltibia 30.4874
lfoot -5.16371 9.20007
ltoes -38.2718
992
root -0.536966 16.894 -3.84883 -17.5091 -65.86 -3.10211
lowerback 34.2416 -1.71935 -2.23897
upperback 3.16226 -4.17839 -4.68334
thorax -14.2647 -1.99869 -2.07392
lowerneck 5.22091 -17.3852 3.46632
upperneck -18.0901 -22.1393 10.9438
head -5.47078 -11.9164 4.12791
rclavicle -4.2043e-014 -5.88403e-014
rhumerus 40.9858 -33.4157 -25.2222
rradius 22.4238
rwrist 1.93273
rhand -28.6298 -21.8701
rfingers 7.12502
rthumb -1.99418 -51.8405
lclavicle -4.2043e-014 -5.88403e-014
lhumerus 147.4 142.94 221.628
lradius 7.0458
lwrist -55.0432
lhand -14.1401 -6.67106
lfingers 7.12502
lthumb 11.994 22.9653
rfemur 4.84418 -7.63434 14.3012
rtibia 31.9845
rfoot -13.7054 10.4064
rtoes -12.3385
lfemur 17.1272 -7.4652 -4.37592
ltibia 30.4791
lfoot -4.68707 9.80931
ltoes -38.258
993
root -0.575994 16.9209 -3.88061 -17.5872 -66.5026 -2.84151
lowerback 34.1199 -1.73865 -2.08167
upperback 3.1351 -4.13949 -4.67949
thorax -14.2568 -1.99104 -2.1731
lowerneck 5.31317 -17.2607 3.38274
upperneck -18.1351 -21.9771 10.8845
head -5.50364 -11.8307 4.12716
rclavicle 2.03754e-015 4.29375e-014
rhumerus 40.1337 -29.6229 -22.3451
rradius 24.3542
rwrist 1.02856
rhand -27.7719 -19.9665
rfingers 7.12502
rthumb -1.1656 -49.943
lclavicle 2.03754e-015 4.29375e-014
lhumerus 147.158 142.478 221.377
lradius 6.86249
lwrist -56.1894
lhand -14.2311 -6.52593
lfingers 7.12502
lthumb 11.9063 23.1155
rfemur 4.8096 -7.2274 14.5747
rtibia 31.6165
rfoot -13.5067 10.5349
rtoes -12.1575
lfemur 17.1957 -6.92123 -4.46307
ltibia 30.4833
lfoot -4.327 10.209
ltoes -37.8135
994
root -0.614097 16.9462 -3.91053 -17.6832 -67.1239 -2.58418
lowerback 34.0365 -1.77411 -1.92119
upperback 3.09887 -4.12206 -4.6728
thorax -14.2756 -1.99234 -2.26082
lowerneck 5.42895 -17.1249 3.23945
upperneck -18.1969 -21.8025 10.839
head -5.53755 -11.7371 4.13917
rclavicle 2.46493e-014 4.6118e-014
rhumerus 39.4798 -25.9151 -19.5675
rradius 26.5457
rwrist 0.730591
rhand -26.8673 -17.9799
rfingers 7.12502
rthumb -0.291949 -47.9594
lclavicle 2.46493e-014 4.6118e-014
lhumerus 146.86 141.997 221.113
lradius 6.70082
lwrist -57.2873
lhand -14.4038 -6.38571
lfingers 7.12502
lthumb 11.7397 23.2653
rfemur 4.80827 -6.87471 14.8214
rtibia 31.2534
rfoot -13.3301 10.6839
rtoes -12.1102
lfemur 17.2646 -6.40571 -4.56647
ltibia 30.5125
lfoot -4.08422 10.4299
ltoes -37.1441
995
root -0.649591 16.9708 -3.94047 -17.8484 -67.663 -2.24633
lowerback 33.9745 -1.81614 -1.81499
upperback 3.06813 -4.13229 -4.65415
thorax -14.2924 -2.00243 -2.29426
lowerneck 5.39462 -16.991 3.11877
upperneck -18.1552 -21.6468 10.7412
head -5.52225 -11.6464 4.11189
rclavicle -4.87022e-015 -1.43125e-014
rhumerus 38.9658 -22.3395 -16.7917
rradius 28.9956
rwrist 0.94702
rhand -26.075 -15.9276
rfingers 7.12502
rthumb 0.473298 -45.9068
lclavicle -4.87022e-015 -1.43125e-014
lhumerus 146.61 141.469 220.927
lradius 6.55121
lwrist -58.2441
lhand -14.5331 -6.23958
lfingers 7.12502
lthumb 11.615 23.4185
rfemur 4.80129 -6.54795 15.0181
rtibia 30.9116
rfoot -13.1527 10.7921
rtoes -11.9702
lfemur 17.2768 -5.87438 -4.68831
ltibia 30.5577
lfoot -3.88338 10.4082
ltoes -36.7011
996
root -0.68139 16.9934 -3.96882 -18.0374 -68.2332 -1.89781
lowerback 33.9669 -1.84647 -1.70617
upperback 3.023 -4.13121 -4.64287
thorax -14.349 -2.00723 -2.34046
lowerneck 5.33109 -16.8657 3.08756
upperneck -18.1244 -21.5025 10.5917
head -5.52174 -11.5621 4.06006
rclavicle -1.98785e-016 1.59028e-014
rhumerus 38.5307 -18.8665 -13.9929
rradius 31.6966
rwrist 1.60433
rhand -25.4913 -13.9289
rfingers 7.12502
rthumb 1.03707 -43.9061
lclavicle -1.98785e-016 1.59028e-014
lhumerus 146.373 140.948 220.746
lradius 6.41389
lwrist -58.9979
lhand -14.7372 -6.14022
lfingers 7.12502
lthumb 11.4182 23.5289
rfemur 4.78201 -6.27226 15.1885
rtibia 30.5944
rfoot -12.9948 10.9802
rtoes -12.0441
lfemur 17.3026 -5.28627 -4.79256
ltibia 30.6183
lfoot -3.78154 10.2673
ltoes -36.3498
997
root -0.71272 17.0153 -3.99525 -18.3075 -68.7489 -1.43493
lowerback 33.9267 -1.88494 -1.63498
upperback 2.97954 -4.15549 -4.6469
thorax -14.3901 -2.02188 -2.37318
lowerneck 5.21297 -16.7285 3.15894
upperneck -18.0668 -21.3446 10.3711
head -5.52424 -11.4705 3.97034
rclavicle -3.97569e-016 5.40694e-014
rhumerus 38.3158 -15.6453 -11.3756
rradius 34.5647
rwrist 2.75044
rhand -25.21 -11.8585
rfingers 7.12502
rthumb 1.30876 -41.8342
lclavicle -3.97569e-016 5.40694e-014
lhumerus 146.116 140.421 220.565
lradius 6.33483
lwrist -59.5562
lhand -14.8754 -6.03076
lfingers 7.12502
lthumb 11.2849 23.6457
rfemur 4.73024 -6.02562 15.2981
rtibia 30.2985
rfoot -12.8772 11.1379
rtoes -12.196
lfemur 17.2945 -4.72756 -4.95641
ltibia 30.6771
lfoot -3.81439 9.95209
ltoes -36.1832
